<svg xmlns="http://www.w3.org/2000/svg" height="40" viewBox="0 -960 960 960" width="40"><path d="M791-88 525.787-353.334q-29.454 21.615-68.426 34.308-38.973 12.692-84.736 12.692-117.444 0-198.201-80.87-80.757-80.869-80.757-196.666t80.87-196.463Q255.407-861 371.203-861 487-861 567.666-780.189q80.667 80.811 80.667 196.622 0 46.234-12.5 83.9-12.5 37.667-35.834 70l267.001 266-76 75.666ZM371.157-412.334q72.853 0 122.015-49.195 49.162-49.194 49.162-121.727t-49.201-122.139q-49.201-49.607-121.917-49.607-73.272 0-122.411 49.607-49.139 49.606-49.139 122.139 0 72.533 49.041 121.727 49.041 49.195 122.45 49.195Z"/></svg>